<svg xmlns="http://www.w3.org/2000/svg" width="120" height="120" viewBox="0 0 120 120"><rect width="100%" height="100%" fill="#DDDDDD"/><path fill="#FFFFFF" d="m33.315 53.955-.71 1.34q-.12.22-.26.32-.15.1-.36.1-.22 0-.47-.16-.26-.17-.62-.37-.35-.2-.83-.36t-1.13-.16q-.59 0-1.03.14t-.74.39q-.3.26-.45.61-.14.35-.14.77 0 .53.3.89t.79.61 1.12.45 1.29.43q.67.22 1.3.52t1.12.76.79 1.12.3 1.6q0 1.03-.35 1.93t-1.03 1.56q-.68.67-1.65 1.05-.98.39-2.24.39-.72 0-1.43-.14-.7-.15-1.35-.41-.64-.26-1.21-.63t-1.01-.82l.83-1.35q.11-.15.27-.25.17-.1.36-.1.26 0 .57.22.3.21.72.48.42.26.98.47.57.22 1.35.22 1.21 0 1.87-.57.66-.58.66-1.65 0-.6-.29-.97-.3-.38-.8-.64-.49-.26-1.12-.44-.63-.17-1.28-.38t-1.28-.51q-.63-.29-1.13-.76-.49-.48-.79-1.19-.3-.7-.3-1.74 0-.83.33-1.62t.96-1.4 1.56-.97q.92-.37 2.12-.37 1.34 0 2.48.42 1.13.42 1.93 1.17m5.91 13.93q-1.41 0-2.16-.79-.75-.8-.75-2.19v-6.02h-1.1q-.21 0-.36-.14-.15-.13-.15-.41v-1.03l1.74-.28.54-2.94q.06-.21.2-.32.15-.12.38-.12h1.34v3.39h2.88v1.85h-2.88v5.84q0 .5.25.78.25.29.68.29.24 0 .4-.06.17-.06.29-.12t.21-.12q.1-.06.19-.06.12 0 .19.06t.16.17l.77 1.26q-.56.47-1.3.72-.73.24-1.52.24m10.91-10.94h2.59v10.77h-1.58q-.52 0-.65-.47l-.18-.86q-.66.67-1.46 1.08-.8.42-1.88.42-.88 0-1.56-.3t-1.14-.85q-.46-.54-.7-1.29-.23-.75-.23-1.66v-6.84h2.59v6.84q0 .99.46 1.53.45.54 1.37.54.67 0 1.26-.3.58-.3 1.11-.82zm11.92 7.58v-4.83q-.44-.54-.96-.76t-1.12-.22q-.59 0-1.06.22-.48.22-.81.67-.34.44-.52 1.13-.17.69-.17 1.62 0 .95.15 1.61.15.65.43 1.07.29.41.7.6.41.18.91.18.81 0 1.38-.34.56-.33 1.07-.95m0-12.41h2.59v15.6h-1.59q-.51 0-.65-.47l-.22-1.04q-.65.74-1.49 1.21-.85.46-1.97.46-.88 0-1.62-.37-.73-.37-1.26-1.07-.53-.69-.82-1.72t-.29-2.36q0-1.19.32-2.22.33-1.03.94-1.79.61-.75 1.46-1.18.85-.42 1.91-.42.9 0 1.54.28t1.15.77zm7.2 8.97h4.89q0-.5-.14-.95-.14-.44-.42-.78-.29-.33-.72-.53-.44-.19-1.02-.19-1.12 0-1.77.64-.64.64-.82 1.81m6.61 1.57h-6.66q.06.83.29 1.43.23.61.61 1t.9.59q.52.19 1.15.19t1.08-.15q.46-.14.8-.32t.6-.33q.26-.14.5-.14.33 0 .48.24l.75.94q-.43.51-.97.85-.53.34-1.12.54-.58.21-1.18.29-.61.09-1.17.09-1.13 0-2.09-.38-.97-.37-1.68-1.1-.72-.73-1.13-1.8-.41-1.08-.41-2.5 0-1.1.36-2.07t1.02-1.69q.67-.72 1.63-1.14t2.17-.42q1.02 0 1.88.32.86.33 1.48.95.62.63.97 1.54t.35 2.07q0 .59-.12.79-.13.21-.49.21m4.8-5.24.18.85q.33-.33.69-.6.36-.28.77-.48.4-.19.86-.3t1.01-.11q.88 0 1.56.3.69.3 1.14.84.46.54.7 1.29.23.75.23 1.65v6.86h-2.59v-6.86q0-.98-.45-1.52-.45-.55-1.38-.55-.67 0-1.26.31-.59.3-1.11.83v7.79h-2.59v-10.77h1.58q.51 0 .66.47m13.19 10.47q-1.41 0-2.16-.79-.75-.8-.75-2.19v-6.02h-1.1q-.21 0-.36-.14-.14-.13-.14-.41v-1.03l1.73-.28.54-2.94q.06-.21.2-.32.15-.12.38-.12h1.35v3.39h2.87v1.85h-2.87v5.84q0 .5.24.78.25.29.68.29.24 0 .4-.06.17-.06.29-.12t.21-.12q.1-.06.19-.06.12 0 .19.06t.16.17l.78 1.26q-.57.47-1.31.72-.73.24-1.52.24"/></svg>